Simulation
nRows=28
nColumns=15
endheader
time  TH_x TH_y TH_z SC_y  SC_z  SC_x  AC_y  AC_z  AC_x  GH_y  GH_z  GH_yy  EL_x  PS_y
0.0  0.000000  0.000000  0.000000  -17.223518921881816  31.35917543580462  4.088124747972376  29.630235883362477  -27.529769542360388  18.033114653074563  -61.37559708363971  8.31015178873847  87.07917601245715  23.03293277374778  0.000000
0.03  0.000000  0.000000  0.000000  -22.476100000760095  37.10300144719477  -1.1865966032975876  14.617018265590072  -38.310595737116785  24.39291389978548  -63.03088572606213  16.02888591802747  89.42464493261427  20.782741000560502  0.000000
0.06  0.000000  0.000000  0.000000  -25.95333615168315  36.81162643149195  4.327300008736639  30.588834061387264  -30.34582310837603  17.267506637494577  -66.71964700908087  4.508468034345538  86.2772842137161  18.69851087856362  0.000000
0.09  0.000000  0.000000  0.000000  -27.833314330016066  17.90166124050052  10.232043078253037  45.48602925258527  -11.50928897511057  6.405138544929728  -65.9458418252334  3.569453441200258  84.9428644900917  21.92127209906151  0.000000
0.12  0.000000  0.000000  0.000000  -29.081526892237697  1.5714831705989964  6.5365670802298625  37.9908863214234  0.4498911544659954  2.5130214778196023  -63.500911485731024  10.021944914167237  84.70118692130112  24.34186244844159  0.000000
0.15  0.000000  0.000000  0.000000  -29.38965313627717  0.4781466597783535  1.8672307500684093  42.213579460020945  7.462089228265291  -2.426463794483564  -63.07330331742127  2.2436545872324185  80.4640038015001  22.533919533764646  0.000000
0.18  0.000000  0.000000  0.000000  -30.507092720524422  0.5702885663739188  2.3949626467321767  40.75092808821807  6.787969604998194  -1.159778792522026  -60.125248505487356  3.8802297224430977  78.24213297795035  21.83054341137696  0.000000
0.21  0.000000  0.000000  0.000000  -29.055425982176885  0.9759215893165931  4.269049179161754  35.83203571607536  5.580096991947625  -0.14366090049309616  -56.23074143113148  6.698768904757569  74.86732859983526  22.99438192721817  0.000000
0.24  0.000000  0.000000  0.000000  -27.637787020074455  -1.205241849759643  5.614355358932444  40.96539132603643  11.405953282168225  -5.094888396818198  -52.828170433823104  4.828078568128299  69.6110465070552  25.077552327687794  0.000000
0.27  0.000000  0.000000  0.000000  -28.860307983345468  -7.628327233835217  8.562416041498967  46.56778629174881  12.296804708295149  -3.140194573043582  -47.45122326434118  15.996288428181757  65.41687487858422  25.994524638253626  0.000000
0.3  0.000000  0.000000  0.000000  -26.121352676648545  4.525086617135186  5.969494988139513  56.616865885053826  -1.4570275793414063  10.643961412881488  -38.175464389153845  27.78765494524705  51.90092197303899  20.12731818828534  0.000000
0.32999999999999996  0.000000  0.000000  0.000000  -24.910472601363256  33.927890604268  -4.6695290759971995  37.7246483827041  -29.30573756266763  31.49962016129517  -27.864567567610433  28.974138723228823  43.464753524427536  17.08973994926851  0.000000
0.36  0.000000  0.000000  0.000000  -24.10081236514376  41.132770433723856  -2.209284536290327  23.31295089381891  -38.93271172777583  31.56962122898733  -25.200641019023692  31.76144260276663  40.23217998734297  18.630642457767628  0.000000
0.39  0.000000  0.000000  0.000000  -20.63298592099455  32.42475241924006  4.82372389140645  30.70528084530669  -29.68708778843293  21.72941884930086  -23.959036949167295  37.20493525482639  34.92100979140115  17.649887841936327  0.000000
0.42  0.000000  0.000000  0.000000  -22.796094808059827  39.462702929492245  -0.012718706336955344  20.569096328879247  -37.51161879049281  28.429313289090747  -20.76977077172297  36.46929290249802  35.10382993656382  19.15647656908127  0.000000
0.44999999999999996  0.000000  0.000000  0.000000  -24.665679305310466  36.04012824022155  2.6180707778475822  35.35868152570404  -34.31200865526414  25.117497331314595  -20.481284853978718  37.2704258265588  27.174794506700223  18.156849787148047  0.000000
0.48  0.000000  0.000000  0.000000  -29.230240361543917  10.200931643036709  11.375948201297454  53.197565831477164  -9.9924266723986  9.183435322336953  -21.32858180454542  38.707550251933334  25.168335576552494  20.318260911104794  0.000000
0.51  0.000000  0.000000  0.000000  -32.5499498000661  -2.2588899597473837  10.88942293463735  46.60875408101378  4.556298647975584  1.9564766091255201  -18.692890348719462  35.2004025893105  24.19006483734817  25.594167797177143  0.000000
0.54  0.000000  0.000000  0.000000  -30.558260829758996  2.4573016661745655  5.855527647799286  45.92124855300147  6.462787015576236  -0.1352671039967493  -12.133845981550195  33.446332379826366  17.349342524493665  25.88574416069346  0.000000
0.57  0.000000  0.000000  0.000000  -31.116082446679787  4.2608795457265405  5.758082083571481  41.68037186534717  5.135440580319035  2.1522704551911906  -8.384534083716927  34.941430088671424  16.25153199749638  25.41312200235346  0.000000
0.6  0.000000  0.000000  0.000000  -31.53263504262644  2.8637372305301745  6.036527496847843  41.15628741301758  6.671319943408187  1.9512924747666909  -7.1913640822601925  36.55718633978413  13.10710383682662  23.95777191203006  0.000000
0.63  0.000000  0.000000  0.000000  -31.112147704009406  2.7001633295670997  5.8932415856950415  41.4210159423151  8.10298330102749  0.7379990070291871  -5.601857505174867  38.41478098245342  12.235000351066821  23.411161434179483  0.000000
0.6599999999999999  0.000000  0.000000  0.000000  -31.169720008038084  2.359422027214956  6.400215302319218  40.815138449706645  8.159742190785165  1.148821783889632  -5.070652749275389  41.45428446372776  11.009469239265782  22.849074945627027  0.000000
0.69  0.000000  0.000000  0.000000  -30.661051593802966  2.302662767409903  6.354618954677901  41.282771426945764  10.691990018142667  0.22085054961126807  -4.322371326449377  42.34888163366833  9.607024227157568  22.01758099654204  0.000000
0.72  0.000000  0.000000  0.000000  -30.48618726556856  2.885185804142634  7.225180552427342  38.37328416268889  15.723683888838535  0.7330164438225513  -1.9246610167751372  39.025102717349654  9.387210289022498  22.183400384346015  0.000000
0.75  0.000000  0.000000  0.000000  -30.39350245252476  3.940260628522599  7.129159249394942  38.0025113951741  16.14214688225316  0.8910519727791139  -0.6228853995695518  40.58059785197708  7.898175388562983  21.67239628637226  0.000000
0.78  0.000000  0.000000  0.000000  -30.882405078545265  4.191455477010656  6.998382567974926  39.34743585062414  12.16236252817219  1.4431060598844718  -0.8641037105485933  47.44002492995263  7.179523113058372  21.044846426755164  0.000000
0.8099999999999999  0.000000  0.000000  0.000000  -31.654783876868358  3.895226664972307  7.596432368221291  40.40673170847956  12.535135465202844  1.4631730377264232  -0.6121114686431997  49.49527342022418  6.593170885728545  20.75989567274916  0.000000
